@startuml
skin rose

[*] --> idle
idle : waits for user
idle --> [*]

'note left of idle: displays zero

idle -> started
started --> stopped
started: measures elapsed time
'note right of started: measures elapsed time
stopped --> [*]
stopped: displays measured time
'note right of stopped: displays measured time

stopped --> started
stopped -> idle
@enduml
